<mxfile host="app.diagrams.net" modified="2021-04-03T18:26:23.361Z" agent="5.0 (Macintosh; Intel Mac OS X 10_15_7) AppleWebKit/605.1.15 (KHTML, like Gecko) Version/14.0.3 Safari/605.1.15" etag="y7dLhJk-eDM8BsfQF1QW" version="14.4.9" type="github">
  <diagram id="SIkGXITU9Z35wxNCEEsx" name="Page-1">
    <mxGraphModel dx="946" dy="662" grid="1" gridSize="10" guides="1" tooltips="1" connect="1" arrows="1" fold="1" page="1" pageScale="1" pageWidth="827" pageHeight="1169" math="0" shadow="0">
      <root>
        <mxCell id="0" />
        <mxCell id="1" parent="0" />
        <mxCell id="UHk0uMI-Ep7OaX0F3Ku_-1" value="&lt;font style=&quot;font-size: 32px&quot;&gt;&lt;b&gt;Discord&lt;/b&gt;&lt;/font&gt;" style="rounded=1;whiteSpace=wrap;html=1;" vertex="1" parent="1">
          <mxGeometry x="170" y="120" width="120" height="60" as="geometry" />
        </mxCell>
      </root>
    </mxGraphModel>
  </diagram>
</mxfile>
